<svg width="900" height="520" viewBox="0 0 900 520" xmlns="http://www.w3.org/2000/svg" font-family="Consolas, Menlo, monospace">
  <rect width="900" height="520" rx="12" fill="#0d1117"/>
  <rect width="900" height="34" rx="12" fill="#1f2937"/>
  <circle cx="24" cy="17" r="6" fill="#ff5f56"/>
  <circle cx="46" cy="17" r="6" fill="#ffbd2e"/>
  <circle cx="68" cy="17" r="6" fill="#27c93f"/>
  <text x="450" y="22" fill="#9ca3af" font-size="13" text-anchor="middle">GoTell.exe — Dashboard Manager</text>

  <text x="40" y="70" fill="#38bdf8" font-size="16">  DASHBOARD MANAGER - 2026-06-20</text>
  <line x1="40" y1="82" x2="860" y2="82" stroke="#374151" stroke-width="1"/>

  <text x="40" y="120" fill="#d1d5db" font-size="15">  Total Pendapatan      : <tspan fill="#22c55e">Rp 18.450.000</tspan></text>
  <text x="40" y="150" fill="#d1d5db" font-size="15">  Transaksi Selesai     : 27</text>
  <text x="40" y="180" fill="#d1d5db" font-size="15">  Tingkat Okupansi      :</text>
  <text x="270" y="180" fill="#ef4444" font-size="15">████████████████</text>
  <text x="490" y="180" fill="#4b5563" font-size="15">░░░░░░░░░░░░░░</text>
  <text x="660" y="180" fill="#e5e7eb" font-size="15">57.1%</text>

  <text x="40" y="230" fill="#d1d5db" font-size="15">  Status Kamar:</text>
  <text x="70" y="262" fill="#22c55e" font-size="14">Kosong: 4</text>
  <text x="220" y="262" fill="#ef4444" font-size="14">Terisi: 8</text>
  <text x="370" y="262" fill="#facc15" font-size="14">Dipesan: 1</text>
  <text x="540" y="262" fill="#38bdf8" font-size="14">Dibersihkan: 1</text>
  <text x="730" y="262" fill="#a855f7" font-size="14">Maintenance: 0</text>

  <rect x="40" y="300" width="820" height="3" fill="#1f2937"/>

  <text x="40" y="340" fill="#38bdf8" font-size="15">  MENU MANAGER - Iqbal Ganteng</text>
  <g font-size="14" fill="#e5e7eb">
    <rect x="290" y="365" width="320" height="34" fill="#1e3a8a" stroke="#38bdf8" stroke-width="2"/>
    <text x="450" y="387" text-anchor="middle" fill="#ffffff">Dashboard Utama</text>

    <rect x="290" y="409" width="320" height="34" fill="none" stroke="#374151" stroke-width="1"/>
    <text x="450" y="431" text-anchor="middle">Lihat Semua Kamar</text>

    <rect x="290" y="453" width="320" height="34" fill="none" stroke="#374151" stroke-width="1"/>
    <text x="450" y="475" text-anchor="middle">Laporan Pendapatan</text>
  </g>
</svg>
