<svg width="900" height="500" viewBox="0 0 900 500" xmlns="http://www.w3.org/2000/svg" font-family="Consolas, Menlo, monospace">
  <rect width="900" height="500" rx="12" fill="#0d1117"/>
  <rect width="900" height="34" rx="12" fill="#1f2937"/>
  <circle cx="24" cy="17" r="6" fill="#ff5f56"/>
  <circle cx="46" cy="17" r="6" fill="#ffbd2e"/>
  <circle cx="68" cy="17" r="6" fill="#27c93f"/>
  <text x="450" y="22" fill="#9ca3af" font-size="13" text-anchor="middle">GoTell.exe — Menu Resepsionis</text>

  <text x="40" y="70" fill="#38bdf8" font-size="16">  MENU RESEPSIONIS - Adji</text>
  <line x1="40" y1="82" x2="860" y2="82" stroke="#374151" stroke-width="1"/>

  <g font-size="14" fill="#e5e7eb">
    <rect x="290" y="120" width="320" height="34" fill="none" stroke="#374151" stroke-width="1"/>
    <text x="450" y="142" text-anchor="middle">Check-in Tamu</text>

    <rect x="290" y="164" width="320" height="34" fill="#1e3a8a" stroke="#38bdf8" stroke-width="2"/>
    <text x="450" y="186" text-anchor="middle" fill="#ffffff">Tambah Layanan ke Tamu</text>

    <rect x="290" y="208" width="320" height="34" fill="none" stroke="#374151" stroke-width="1"/>
    <text x="450" y="230" text-anchor="middle">Check-out Tamu</text>

    <rect x="290" y="252" width="320" height="34" fill="none" stroke="#374151" stroke-width="1"/>
    <text x="450" y="274" text-anchor="middle">Lihat Semua Kamar</text>

    <rect x="290" y="296" width="320" height="34" fill="none" stroke="#374151" stroke-width="1"/>
    <text x="450" y="318" text-anchor="middle">Lihat Transaksi Aktif</text>

    <rect x="290" y="340" width="320" height="34" fill="none" stroke="#374151" stroke-width="1"/>
    <text x="450" y="362" text-anchor="middle">Logout</text>
  </g>

  <text x="40" y="440" fill="#fbbf24" font-size="13">[ Tombol ATAS/BAWAH pilih menu, ENTER untuk konfirmasi ]</text>
</svg>
